<?xml version="1.0" standalone="no"?>
<!DOCTYPE svg PUBLIC "-//W3C//DTD SVG 20010904//EN"
 "http://www.w3.org/TR/2001/REC-SVG-20010904/DTD/svg10.dtd">
<svg version="1.0" xmlns="http://www.w3.org/2000/svg"
 width="200.000000pt" height="200.000000pt" viewBox="0 0 200.000000 200.000000"
 preserveAspectRatio="xMidYMid meet">
<metadata>
Created by potrace 1.11, written by Peter Selinger 2001-2013
</metadata>
<g transform="translate(0.000000,200.000000) scale(0.100000,-0.100000)"
fill="#000000" stroke="none">
<path d="M967 1979 c-95 -27 -114 -42 -134 -105 -16 -51 -21 -57 -81 -91 -126
-70 -226 -204 -237 -318 -2 -27 -7 -78 -10 -112 -3 -35 -7 -68 -10 -75 -2 -7
-7 -31 -10 -52 -15 -105 -88 -280 -199 -476 -71 -126 -102 -194 -121 -268 -13
-48 -13 -58 1 -81 53 -90 239 -125 357 -67 28 14 46 18 43 11 -2 -7 -21 -65
-42 -129 -42 -132 -45 -122 43 -155 112 -43 208 -56 418 -56 228 0 362 8 376
22 16 16 27 69 25 127 0 31 1 56 4 56 3 0 16 -21 30 -47 32 -61 82 -113 108
-113 64 0 63 89 -3 252 -6 14 -2 16 17 12 12 -2 57 -7 99 -11 123 -9 159 20
178 145 31 206 35 626 7 768 -2 12 -7 39 -10 60 -22 139 -88 300 -156 376 -51
59 -84 79 -192 118 -96 35 -128 61 -147 117 -18 53 -43 81 -88 97 -56 20 -186
17 -266 -5z m222 -45 c9 -9 -56 -86 -157 -188 -61 -60 -112 -104 -116 -98 -6
10 -10 131 -7 215 1 31 6 39 29 48 66 27 231 42 251 23z m91 -86 c39 -79 50
-87 190 -140 106 -39 166 -95 215 -201 79 -167 106 -350 100 -682 -4 -263 -21
-425 -45 -449 -27 -26 -92 -26 -210 0 l-25 6 25 13 c29 16 107 19 143 6 20 -8
27 -6 31 6 8 20 6 22 -32 32 -51 15 -137 6 -170 -18 -36 -25 -38 -26 -38 -3
-2 39 -15 146 -19 152 -2 4 -7 55 -11 113 -5 86 -4 115 9 149 23 61 29 102 28
193 0 83 -7 153 -26 275 -9 61 -25 188 -27 221 -1 27 -6 36 -17 34 -13 -2 -16
-15 -15 -61 0 -32 4 -79 8 -104 43 -269 50 -441 21 -522 -9 -23 -17 -49 -17
-55 -1 -7 -4 -13 -7 -14 -14 -2 -47 -8 -70 -14 -14 -4 -28 -7 -31 -7 -3 0 -16
-5 -30 -10 -54 -20 -300 -78 -337 -79 -21 0 -52 4 -69 9 -20 6 -37 6 -48 0
-25 -14 -80 -1 -102 23 -14 16 -19 38 -21 88 -2 91 -13 212 -19 222 -3 5 -7
55 -9 112 -5 107 5 163 35 194 16 17 166 153 180 163 3 3 26 32 50 65 24 33
90 106 146 162 57 56 117 123 134 148 17 25 34 45 38 45 4 0 23 -32 42 -72z
m-395 -235 c7 -29 3 -36 -51 -90 -33 -32 -87 -82 -121 -111 -39 -34 -67 -68
-78 -95 -20 -48 -26 -145 -14 -232 24 -182 26 -220 14 -337 -5 -47 -4 -77 5
-98 11 -28 10 -33 -9 -54 -12 -13 -71 -51 -132 -86 -110 -63 -111 -63 -104
-96 5 -27 2 -34 -14 -39 -39 -12 -151 21 -151 45 0 6 25 10 56 10 47 0 55 3
52 17 -3 15 -14 18 -61 18 -31 0 -57 3 -57 6 0 24 43 117 125 269 52 97 111
216 130 264 44 109 82 266 90 371 3 44 8 94 11 110 19 92 107 197 212 253 34
18 65 38 69 45 5 7 11 -21 14 -63 4 -41 10 -89 14 -107z m525 -1053 c6 -52 14
-117 17 -145 3 -27 16 -70 28 -95 27 -54 70 -189 62 -196 -3 -3 -25 29 -49 71
-24 43 -57 96 -74 120 l-31 42 19 37 c11 21 18 42 16 48 -2 5 -37 23 -78 38
-75 30 -166 85 -174 107 -3 8 15 16 52 24 31 6 89 19 127 29 39 10 71 17 72
16 0 0 6 -44 13 -96z m-419 -44 c30 -13 110 -56 179 -95 69 -39 132 -75 140
-80 12 -6 16 -34 18 -131 2 -68 -1 -127 -5 -131 -18 -18 -391 -28 -521 -14
-123 13 -242 48 -242 71 0 8 18 60 39 116 21 57 47 129 56 161 14 48 24 62 56
84 35 23 42 24 69 13 26 -11 37 -10 68 3 77 33 77 33 143 3z"/>
</g>
</svg>
